<svg id="svg" version="1.1" width="400" height="400" xmlns="http://www.w3.org/2000/svg" xmlns:xlink="http://www.w3.org/1999/xlink" style="display: block;"><g id="svgg"><path id="path0" d="M191.600 89.600 L 191.600 119.600 181.600 119.600 L 171.600 119.600 171.600 179.600 L 171.600 239.600 163.600 239.600 L 155.600 239.600 155.600 265.595 L 155.600 291.589 141.900 291.695 L 128.200 291.800 128.094 303.900 L 127.988 316.000 112.008 316.000 L 96.028 316.000 95.914 311.900 L 95.800 307.800 87.700 307.692 L 79.600 307.583 79.600 315.592 L 79.600 323.600 68.000 323.600 L 56.400 323.600 56.400 283.800 L 56.400 244.000 48.000 244.000 L 39.600 244.000 39.600 292.200 L 39.600 340.400 77.735 340.400 C 98.709 340.400,121.299 340.281,127.935 340.135 L 140.000 339.871 140.000 329.935 L 140.000 320.000 159.993 320.000 L 179.986 320.000 180.093 330.100 L 180.200 340.200 200.000 340.200 L 219.800 340.200 219.907 330.100 L 220.014 320.000 240.007 320.000 L 260.000 320.000 260.000 329.935 L 260.000 339.870 275.065 340.135 C 283.351 340.281,305.941 340.400,325.265 340.400 L 360.400 340.400 360.400 292.200 L 360.400 244.000 352.000 244.000 L 343.600 244.000 343.600 283.800 L 343.600 323.600 332.000 323.600 L 320.400 323.600 320.400 315.590 L 320.400 307.579 314.300 307.690 L 308.200 307.800 308.086 311.900 L 307.972 316.000 291.992 316.000 L 276.012 316.000 275.906 303.900 L 275.800 291.800 260.100 291.695 L 244.400 291.591 244.400 265.595 L 244.400 239.600 236.400 239.600 L 228.400 239.600 228.400 179.600 L 228.400 119.600 218.400 119.600 L 208.400 119.600 208.400 89.600 L 208.400 59.600 200.000 59.600 L 191.600 59.600 191.600 89.600 M111.600 244.000 L 111.600 280.000 120.000 280.000 L 128.400 280.000 128.400 244.000 L 128.400 208.000 120.000 208.000 L 111.600 208.000 111.600 244.000 M275.600 244.000 L 275.600 280.000 284.000 280.000 L 292.400 280.000 292.400 244.000 L 292.400 208.000 284.000 208.000 L 275.600 208.000 275.600 244.000 " stroke="none" fill="#ffffff" fill-rule="evenodd"></path><path id="path1" d="M111.600 289.800 L 111.600 299.600 103.600 299.600 L 95.600 299.600 95.600 301.736 C 95.600 302.911,95.718 306.601,95.862 309.936 L 96.125 316.000 112.062 316.000 L 128.000 316.000 128.000 307.065 C 128.000 302.150,128.119 294.050,128.264 289.065 L 128.528 280.000 120.064 280.000 L 111.600 280.000 111.600 289.800 M275.736 289.065 C 275.881 294.050,276.000 302.150,276.000 307.065 L 276.000 316.000 291.938 316.000 L 307.875 316.000 308.138 309.936 C 308.282 306.601,308.400 302.911,308.400 301.736 L 308.400 299.600 300.400 299.600 L 292.400 299.600 292.400 289.800 L 292.400 280.000 283.936 280.000 L 275.472 280.000 275.736 289.065 " stroke="none" fill="#0064c8" fill-rule="evenodd"></path><path id="path2" d="M111.600 187.800 L 111.600 208.000 120.000 208.000 L 128.400 208.000 128.400 187.800 L 128.400 167.600 120.000 167.600 L 111.600 167.600 111.600 187.800 M275.600 187.800 L 275.600 208.000 284.000 208.000 L 292.400 208.000 292.400 187.800 L 292.400 167.600 284.000 167.600 L 275.600 167.600 275.600 187.800 M39.600 223.800 L 39.600 244.000 48.000 244.000 L 56.400 244.000 56.400 223.800 L 56.400 203.600 48.000 203.600 L 39.600 203.600 39.600 223.800 M343.600 223.800 L 343.600 244.000 352.000 244.000 L 360.400 244.000 360.400 223.800 L 360.400 203.600 352.000 203.600 L 343.600 203.600 343.600 223.800 M140.000 329.992 L 140.000 339.983 131.900 340.092 L 123.800 340.200 123.693 350.300 L 123.586 360.400 151.993 360.400 L 180.400 360.400 180.400 355.265 C 180.400 352.441,180.281 343.351,180.135 335.065 L 179.870 320.000 159.935 320.000 L 140.000 320.000 140.000 329.992 M219.865 335.065 C 219.719 343.351,219.600 352.441,219.600 355.265 L 219.600 360.400 250.007 360.400 L 280.414 360.400 280.307 350.300 L 280.200 340.200 270.100 340.093 L 260.000 339.986 260.000 329.993 L 260.000 320.000 240.065 320.000 L 220.130 320.000 219.865 335.065 " stroke="none" fill="#ff0000" fill-rule="evenodd"></path></g></svg>